0
SECTION
2
HEADER
9
$INSUNITS
70
4
9
$ACADVER
1
AC1014
9
$HANDSEED
5
FFFF
0
ENDSEC
0
SECTION
2
TABLES
0
TABLE
2
VPORT
5
8
100
AcDbSymbolTable
0
ENDTAB
0
TABLE
2
LTYPE
5
5
100
AcDbSymbolTable
0
LTYPE
5
14
100
AcDbSymbolTableRecord
100
AcDbLinetypeTableRecord
2
BYBLOCK
70
0
0
LTYPE
5
15
100
AcDbSymbolTableRecord
100
AcDbLinetypeTableRecord
2
BYLAYER
70
0
0
ENDTAB
0
TABLE
2
LAYER
5
2
100
AcDbSymbolTable
70
2
0
LAYER
5
50
100
AcDbSymbolTableRecord
100
AcDbLayerTableRecord
2
0
70
0
6
CONTINUOUS
0
ENDTAB
0
TABLE
2
STYLE
5
3
100
AcDbSymbolTable
70
1
0
STYLE
5
11
100
AcDbSymbolTableRecord
100
AcDbTextStyleTableRecord
2
STANDARD
70
0
0
ENDTAB
0
TABLE
2
VIEW
5
6
100
AcDbSymbolTable
70
0
0
ENDTAB
0
TABLE
2
UCS
5
7
100
AcDbSymbolTable
70
0
0
ENDTAB
0
TABLE
2
APPID
5
9
100
AcDbSymbolTable
70
2
0
APPID
5
12
100
AcDbSymbolTableRecord
100
AcDbRegAppTableRecord
2
ACAD
70
0
0
ENDTAB
0
TABLE
2
DIMSTYLE
5
A
100
AcDbSymbolTable
70
1
0
ENDTAB
0
TABLE
2
BLOCK_RECORD
5
1
100
AcDbSymbolTable
70
1
0
BLOCK_RECORD
5
1F
100
AcDbSymbolTableRecord
100
AcDbBlockTableRecord
2
*MODEL_SPACE
0
BLOCK_RECORD
5
1B
100
AcDbSymbolTableRecord
100
AcDbBlockTableRecord
2
*PAPER_SPACE
0
ENDTAB
0
ENDSEC
0
SECTION
2
BLOCKS
0
BLOCK
5
20
100
AcDbEntity
100
AcDbBlockBegin
2
*MODEL_SPACE
0
ENDBLK
5
21
100
AcDbEntity
100
AcDbBlockEnd
0
BLOCK
5
1C
100
AcDbEntity
100
AcDbBlockBegin
2
*PAPER_SPACE
0
ENDBLK
5
1D
100
AcDbEntity
100
AcDbBlockEnd
0
ENDSEC
0
SECTION
2
ENTITIES
0
LINE
5
100
100
AcDbEntity
8
0
100
AcDbLine
10
35.169469198555248
20
-7.5387041793675635
30
1.33097866408451e-14
11
18.737535165937253
21
-3.1254649609652452
31
1.2967180790767874e-14
0
LINE
5
101
100
AcDbEntity
8
0
100
AcDbLine
10
52.561052422460158
20
-11.334614616960472
30
1.4380988993335977e-14
11
38.936041587957419
21
-8.443468072081437
31
1.3371467094510585e-14
0
LINE
5
102
100
AcDbEntity
8
0
100
AcDbLine
10
55.772892620961727
20
-4.4371310760372005
30
1.2865929490595489e-14
11
54.952198899831785
21
-9.6870724962363646
31
1.405971930599071e-14
0
LINE
5
103
100
AcDbEntity
8
0
100
AcDbLine
10
74.778847675499975
20
-5.434740717235691
30
1.2529245305560015e-14
11
58.06364910690764
21
-2.7709512049510545
31
1.2427346285960124e-14
0
SPLINE
5
104
100
AcDbEntity
8
0
100
AcDbSpline
70
0
71
3
72
8
73
4
74
0
42
0.000000001
43
0.0000000001
44
0.0000000001
40
0.0026367643725586716
40
0.0026367643725586716
40
0.0026367643725586716
40
0.0026367643725586716
40
1
40
1
40
1
40
1
10
116.11786231546458
20
-8.6787873849255881
30
1.2373011036543427e-14
10
115.07529717448125
20
-8.6789698903161572
30
1.2387679290516083e-14
10
113.27386760138275
20
-8.6313362384138159
30
1.24057488341771e-14
10
112.23512653876931
20
-8.5765258140233414
30
1.2413289378453386e-14
0
SPLINE
5
105
100
AcDbEntity
8
0
100
AcDbSpline
70
0
71
3
72
8
73
4
74
0
42
0.000000001
43
0.0000000001
44
0.0000000001
40
0
40
0
40
0
40
0
40
1
40
1
40
1
40
1
10
135.0535154923958
20
-8.5740446262826886
30
1.2106636595300091e-14
10
134.0113754551875
20
-8.6278117934903342
30
1.2128151557661549e-14
10
132.20357571198753
20
-8.6742551407918711
30
1.2157702162460295e-14
10
131.15852744993288
20
-8.6746569752566849
30
1.2172391066027989e-14
0
LINE
5
106
100
AcDbEntity
8
0
100
AcDbLine
10
135.0535154923958
20
-8.5740446262826886
30
1.2106636595300091e-14
11
152.61168406968645
21
-7.6681654238255668
31
1.1615770078639331e-14
0
LINE
5
107
100
AcDbEntity
8
0
100
AcDbLine
10
44.722380828764862
20
-80.861549540296664
30
2.1483582071573428e-14
11
60.519458758472382
21
-83.333940601541542
31
2.4046047999383506e-14
0
LINE
5
108
100
AcDbEntity
8
0
100
AcDbLine
10
16.228585221795431
20
-64.99973147353019
30
2.240633108646488e-14
11
3.2003649966309355
21
-61.35931838363696
31
2.0013425995327441e-14
0
LINE
5
109
100
AcDbEntity
8
0
100
AcDbLine
10
64.557267735489347
20
-83.879907295200994
30
2.4058532306067596e-14
11
84.759327608968277
21
-86.186762023491269
31
2.4070585115884283e-14
0
SPLINE
5
110
100
AcDbEntity
8
0
100
AcDbSpline
70
0
71
3
72
11
73
7
74
0
42
0.000000001
43
0.0000000001
44
0.0000000001
40
0.0024032064066496482
40
0.0024032064066496482
40
0.0024032064066496482
40
0.0024032064066496482
40
1
40
1
40
1
40
1.0003418061188611
40
1.0003418061188611
40
1.0003418061188611
40
1.0003418061188611
10
60.519458758472382
20
-83.333940601541542
30
2.4046047999383506e-14
10
61.652674283091962
20
-83.511238267054409
30
2.4052293919944483e-14
10
63.422697682398059
20
-83.750014797936728
30
2.4057841945432425e-14
10
64.556147483331543
20
-83.87977904190366
30
2.4058531597182435e-14
10
64.556520900811051
20
-83.879821793013477
30
2.4058531833477486e-14
10
64.556894318181691
20
-83.879864544110831
30
2.4058532069772544e-14
10
64.557267735489347
20
-83.879907295200994
30
2.4058532306067596e-14
0
SPLINE
5
111
100
AcDbEntity
8
0
100
AcDbSpline
70
0
71
3
72
11
73
7
74
0
42
0.000000001
43
0.0000000001
44
0.0000000001
40
-2.0042089406147154e-05
40
-2.0042089406147154e-05
40
-2.0042089406147154e-05
40
-2.0042089406147154e-05
40
0
40
0
40
0
40
1
40
1
40
1
40
1
10
97.123260196095032
20
-7.7791643203086203
30
1.2517277724920005e-14
10
97.123238180835301
20
-7.7791631590433141
30
1.2517277876447811e-14
10
97.123216166586531
20
-7.7791619978313342
30
1.2517278027975617e-14
10
97.123194153348777
20
-7.7791608366726805
30
1.2517278179503422e-14
10
96.080897987158949
20
-7.7241815907063227
30
1.252483865898264e-14
10
94.277859610301789
20
-7.5824133783267555
30
1.2531535150145058e-14
10
93.240064074379518
20
-7.4737068435690723
30
1.2532139880734478e-14
0
LINE
5
112
100
AcDbEntity
8
0
100
AcDbLine
10
135.14299110426825
20
-85.98499917846766
30
2.3620596529898517e-14
11
135.14288637887316
21
-31.264656360951015
31
1.6839139163970332e-14
0
SPLINE
5
113
100
AcDbEntity
8
0
100
AcDbSpline
70
0
71
3
72
8
73
4
74
0
42
0.000000001
43
0.0000000001
44
0.0000000001
40
0
40
0
40
0
40
0
40
1
40
1
40
1
40
1
10
16.228585221795431
20
-64.99973147353019
30
2.240633108646488e-14
10
17.354698961212279
20
-65.314396034523995
30
2.2428277981752397e-14
10
19.090997368403499
20
-65.740769735043273
30
2.2457266963529057e-14
10
20.234502536746675
20
-65.983423369159539
30
2.2470746283453232e-14
0
LINE
5
114
100
AcDbEntity
8
0
100
AcDbLine
10
153.6817513067854
20
-28.408702227246575
30
1.6603738104902309e-14
11
137.03983736817321
21
-29.267309072243606
31
1.6603738104902309e-14
0
SPLINE
5
115
100
AcDbEntity
8
0
100
AcDbSpline
70
0
71
3
72
14
73
10
74
0
42
0.000000001
43
0.0000000001
44
0.0000000001
40
-3.4682540419298177e-05
40
-3.4682540419298177e-05
40
-3.4682540419298177e-05
40
-3.4682540419298177e-05
40
0
40
0
40
0
40
1
40
1
40
1
40
1.0001843430092596
40
1.0001843430092596
40
1.0001843430092596
40
1.0001843430092596
10
84.759327608968277
20
-86.186762023491269
30
2.4070585115884283e-14
10
84.759365513763569
20
-86.186766350642202
30
2.4070585138357204e-14
10
84.759403417325245
20
-86.186770677652319
30
2.4070585160830125e-14
10
84.759441319653234
20
-86.186775004521593
30
2.4070585183303046e-14
10
85.916689245409543
20
-86.318884580687097
30
2.407123314392447e-14
10
87.699112724540129
20
-86.468854176844602
30
2.4065746481334937e-14
10
88.861170278447588
20
-86.532389297804485
30
2.4058445137118414e-14
10
88.861372718518908
20
-86.532400366149901
30
2.4058443791166651e-14
10
88.861575158665886
20
-86.53241143449948
30
2.4058442445214885e-14
10
88.861777599045809
20
-86.532422502861778
30
2.4058441099263122e-14
0
SPLINE
5
116
100
AcDbEntity
8
0
100
AcDbSpline
70
0
71
3
72
14
73
10
74
0
42
0.000000001
43
0.0000000001
44
0.0000000001
40
-0.00018447080340679934
40
-0.00018447080340679934
40
-0.00018447080340679934
40
-0.00018447080340679934
40
0
40
0
40
0
40
1
40
1
40
1
40
1.00013322121006
40
1.00013322121006
40
1.00013322121006
40
1.00013322121006
10
108.45964588710248
20
-87.600766862328157
30
2.3927761140922848e-14
10
108.45984847440462
20
-87.600777873788388
30
2.3927759786085928e-14
10
108.46005106194589
20
-87.60078888526165
30
2.3927758431249003e-14
10
108.46025364972633
20
-87.600799896747844
30
2.3927757076412083e-14
10
109.60545409287906
20
-87.66304629123718
30
2.3920412624628236e-14
10
111.39646831650055
20
-87.721685851454026
30
2.3903649904170869e-14
10
112.54327733826685
20
-87.734528610965739
30
2.3890516302038093e-14
10
112.54342386011594
20
-87.734530251818597
30
2.3890514552363724e-14
10
112.54357038167214
20
-87.734531892668187
30
2.3890512802689358e-14
10
112.54371690305962
20
-87.734533533515901
30
2.3890511053014989e-14
0
LINE
5
117
100
AcDbEntity
8
0
100
AcDbLine
10
112.54371690305962
20
-87.734533533515901
30
2.3890511053014989e-14
11
133.12094821188003
21
-87.962613276178956
31
2.3644505521100569e-14
0
LINE
5
118
100
AcDbEntity
8
0
100
AcDbLine
10
20.234502536746675
20
-65.983423369159539
30
2.2470746283453232e-14
11
42.407678964806301
21
-70.695484666827554
31
2.2520825788358992e-14
0
LINE
5
119
100
AcDbEntity
8
0
100
AcDbLine
10
1.8059502563476402
20
-58.918445606446603
30
1.9443014308110866e-14
11
16.28611796578631
21
-4.5423555932683612
31
1.3150933278624353e-14
0
LINE
5
120
100
AcDbEntity
8
0
100
AcDbLine
10
74.778847675499975
20
-5.434740717235691
30
1.2529245305560015e-14
11
78.637207980734942
21
-5.9437918509471999
31
1.2540175645636444e-14
0
ARC
5
121
100
AcDbEntity
8
0
100
AcDbCircle
10
57.748894272401031
20
-4.7460282652590022
30
1.2876637696875783e-14
40
1.9999999999999927
210
2.9408959625681269e-17
220
2.2279373678060874e-16
230
1
100
AcDbArc
50
80.945295217691225
51
171.11518204167055
0
ARC
5
122
100
AcDbEntity
8
0
100
AcDbCircle
10
52.976197248392474
20
-9.3781753070145619
30
1.393884617386771e-14
40
1.9999999999999998
210
-2.5012559223288052e-17
220
2.3130114576651575e-16
230
1
100
AcDbArc
50
258.01987273987277
51
351.11518204167055
0
ARC
5
123
100
AcDbEntity
8
0
100
AcDbCircle
10
18.218765791457933
20
-5.0570131317604572
30
1.3190730218789136e-14
40
1.9999999999999984
210
9.5454444607301967e-18
220
1.1317219372232686e-16
230
1
100
AcDbArc
50
74.96644519570512
51
165.08838039744711
0
ARC
5
124
100
AcDbEntity
8
0
100
AcDbCircle
10
3.738598082019271
20
-59.433103144938705
30
1.9794097756482126e-14
40
2.0000000000000075
210
-1.4085635385080923e-16
220
1.5322368074216138e-16
230
1
100
AcDbArc
50
165.08838039744697
51
254.38829723379416
0
ARC
5
125
100
AcDbEntity
8
0
100
AcDbCircle
10
41.991939394500271
20
-72.651797681066782
30
2.2235639087212749e-14
40
2.000000000000016
210
-3.1801819511663699e-17
220
-1.3901938206615461e-16
230
1
100
AcDbArc
50
-9.2276841157549789
51
78.002454646716274
0
ARC
5
126
100
AcDbEntity
8
0
100
AcDbCircle
10
45.031634908769085
20
-78.885603712597756
30
2.17663666891364e-14
40
1.999999999999994
210
-1.8019606492930891e-16
220
-1.1491117119708525e-16
230
1
100
AcDbArc
50
170.77231588424453
51
261.10483355620494
0
LINE
5
127
100
AcDbEntity
8
0
100
AcDbLine
10
135.14299110426825
20
-85.98499917846766
30
2.3620596529898517e-14
11
135.14299221242138
21
-85.984899184607855
31
2.3620596529898514e-14
0
ARC
5
128
100
AcDbEntity
8
0
100
AcDbCircle
10
133.14311501653378
20
-85.962736121758809
30
2.3644505521140009e-14
40
2.0000000000000315
210
1.1953761342053964e-17
220
-1.3249650429784647e-19
230
1
100
AcDbArc
50
269.36495482188917
51
359.36506202328081
0
ARC
5
129
100
AcDbEntity
8
0
100
AcDbCircle
10
137.14288637886949
20
-31.264652533292431
30
1.6851926472483855e-14
40
1.9999999999999938
210
-6.3938914364003604e-18
220
1.2392935327434598e-16
230
1
100
AcDbArc
50
92.953444470491704
51
180.0001096559165
0
ARC
5
130
100
AcDbEntity
8
0
100
AcDbCircle
10
153.57870229608912
20
-26.411358766197736
30
1.6066251529237376e-14
40
2.0000000000000124
210
-1.3846864971200454e-17
220
2.6838632432646936e-16
230
1
100
AcDbArc
50
-87.046555529508282
51
2.9534444704912048
0
LINE
5
131
100
AcDbEntity
8
0
100
AcDbLine
10
43.057517111531148
20
-78.564887447608896
30
2.1447492311999035e-14
11
43.966057191738237
21
-72.972513946055628
31
2.225383384811796e-14
0
LINE
5
132
100
AcDbEntity
8
0
100
AcDbLine
10
155.57604575713796
20
-26.308309755501469
30
1.6066251529237379e-14
11
154.71207654143154
21
-9.5624598741781242
31
1.2040141200642396e-14
0
ARC
5
133
100
AcDbEntity
8
0
100
AcDbCircle
10
152.7147330803827
20
-9.6655088848744004
30
1.2095980112484736e-14
40
1.9999999999999984
210
1.5511079131546972e-17
220
2.4122462891371606e-16
230
1
100
AcDbArc
50
2.9534444704914522
51
92.953444470490894
0
LINE
5
134
100
AcDbEntity
8
0
100
AcDbLine
10
35.169469198555248
20
-7.5387041793675635
30
1.33097866408451e-14
11
38.936041587957419
21
-8.443468072081437
31
1.3371467094510585e-14
0
LINE
5
135
100
AcDbEntity
8
0
100
AcDbLine
10
78.637207980734942
20
-5.9437918509471999
30
1.2540175645636444e-14
11
93.240064074379518
21
-7.4737068435690723
31
1.2532139880734478e-14
0
LINE
5
136
100
AcDbEntity
8
0
100
AcDbLine
10
97.123260196095032
20
-7.7791643203086203
30
1.2517277724920005e-14
11
112.23512201129083
21
-8.5765255751306313
31
1.2413289378453386e-14
0
LINE
5
137
100
AcDbEntity
8
0
100
AcDbLine
10
116.11786231546458
20
-8.6787873849255881
30
1.2373011036543427e-14
11
131.15852744993288
21
-8.6746569752566849
31
1.2172391066027989e-14
0
LINE
5
138
100
AcDbEntity
8
0
100
AcDbLine
10
108.45964588710248
20
-87.600766862328157
30
2.3927761140922848e-14
11
88.861777599045809
21
-86.532422502861778
31
2.4058441099263122e-14
0
CIRCLE
5
139
100
AcDbEntity
8
0
100
AcDbCircle
10
112.61536184192515
20
-67.13481303427605
30
1.9292561892331409e-14
40
1.1000000000000032
210
0
220
0
230
1
0
CIRCLE
5
140
100
AcDbEntity
8
0
100
AcDbCircle
10
113.52804323639089
20
-29.096431797156164
30
1.4649633492340494e-14
40
1.1000000000000014
210
0
220
0
230
1
0
CIRCLE
5
141
100
AcDbEntity
8
0
100
AcDbCircle
10
71.058216472781965
20
-44.816595357179878
30
1.7128452651406906e-14
40
1.100000000000003
210
0
220
0
230
1
0
CIRCLE
5
142
100
AcDbEntity
8
0
100
AcDbCircle
10
92.091315754274063
20
-47.029030061960512
30
1.7117954427953554e-14
40
1.1000000000000032
210
0
220
0
230
1
0
CIRCLE
5
143
100
AcDbEntity
8
0
100
AcDbCircle
10
32.087440897633755
20
-27.854363334211705
30
1.5581969163302346e-14
40
1.0999999999999988
210
0
220
0
230
1
0
CIRCLE
5
144
100
AcDbEntity
8
0
100
AcDbCircle
10
27.485894068990568
20
-46.329416764014404
30
1.7892341033066018e-14
40
1.0999999999999968
210
0
220
0
230
1
0
CIRCLE
5
145
100
AcDbEntity
8
0
100
AcDbCircle
10
112.61536184192515
20
-67.13481303427605
30
1.9292561892331409e-14
40
1.1000000000000032
210
0
220
0
230
1
0
CIRCLE
5
146
100
AcDbEntity
8
0
100
AcDbCircle
10
113.52804323639089
20
-29.096431797156164
30
1.4649633492340494e-14
40
1.1000000000000014
210
0
220
0
230
1
0
CIRCLE
5
147
100
AcDbEntity
8
0
100
AcDbCircle
10
32.087440897633755
20
-27.854363334211705
30
1.5581969163302346e-14
40
1.0999999999999988
210
0
220
0
230
1
0
CIRCLE
5
148
100
AcDbEntity
8
0
100
AcDbCircle
10
71.058216472781965
20
-44.816595357179878
30
1.7128452651406906e-14
40
1.100000000000003
210
0
220
0
230
1
0
CIRCLE
5
149
100
AcDbEntity
8
0
100
AcDbCircle
10
27.485894068990568
20
-46.329416764014404
30
1.7892341033066018e-14
40
1.0999999999999968
210
0
220
0
230
1
0
CIRCLE
5
150
100
AcDbEntity
8
0
100
AcDbCircle
10
92.091315754274063
20
-47.029030061960512
30
1.7117954427953554e-14
40
1.1000000000000032
210
0
220
0
230
1
0
ENDSEC
0
SECTION
2
OBJECTS
0
DICTIONARY
5
C
100
AcDbDictionary
3
ACAD_GROUP
350
D
3
ACAD_MLINESTYLE
350
17
0
DICTIONARY
5
D
100
AcDbDictionary
0
DICTIONARY
5
1A
330
C
100
AcDbDictionary
0
DICTIONARY
5
17
100
AcDbDictionary
0
ENDSEC
0
EOF
