0
SECTION
2
HEADER
9
$INSUNITS
70
4
9
$ACADVER
1
AC1014
9
$HANDSEED
5
FFFF
0
ENDSEC
0
SECTION
2
TABLES
0
TABLE
2
VPORT
5
8
100
AcDbSymbolTable
0
ENDTAB
0
TABLE
2
LTYPE
5
5
100
AcDbSymbolTable
0
LTYPE
5
14
100
AcDbSymbolTableRecord
100
AcDbLinetypeTableRecord
2
BYBLOCK
70
0
0
LTYPE
5
15
100
AcDbSymbolTableRecord
100
AcDbLinetypeTableRecord
2
BYLAYER
70
0
0
ENDTAB
0
TABLE
2
LAYER
5
2
100
AcDbSymbolTable
70
2
0
LAYER
5
50
100
AcDbSymbolTableRecord
100
AcDbLayerTableRecord
2
0
70
0
6
CONTINUOUS
0
ENDTAB
0
TABLE
2
STYLE
5
3
100
AcDbSymbolTable
70
1
0
STYLE
5
11
100
AcDbSymbolTableRecord
100
AcDbTextStyleTableRecord
2
STANDARD
70
0
0
ENDTAB
0
TABLE
2
VIEW
5
6
100
AcDbSymbolTable
70
0
0
ENDTAB
0
TABLE
2
UCS
5
7
100
AcDbSymbolTable
70
0
0
ENDTAB
0
TABLE
2
APPID
5
9
100
AcDbSymbolTable
70
2
0
APPID
5
12
100
AcDbSymbolTableRecord
100
AcDbRegAppTableRecord
2
ACAD
70
0
0
ENDTAB
0
TABLE
2
DIMSTYLE
5
A
100
AcDbSymbolTable
70
1
0
ENDTAB
0
TABLE
2
BLOCK_RECORD
5
1
100
AcDbSymbolTable
70
1
0
BLOCK_RECORD
5
1F
100
AcDbSymbolTableRecord
100
AcDbBlockTableRecord
2
*MODEL_SPACE
0
BLOCK_RECORD
5
1B
100
AcDbSymbolTableRecord
100
AcDbBlockTableRecord
2
*PAPER_SPACE
0
ENDTAB
0
ENDSEC
0
SECTION
2
BLOCKS
0
BLOCK
5
20
100
AcDbEntity
100
AcDbBlockBegin
2
*MODEL_SPACE
0
ENDBLK
5
21
100
AcDbEntity
100
AcDbBlockEnd
0
BLOCK
5
1C
100
AcDbEntity
100
AcDbBlockBegin
2
*PAPER_SPACE
0
ENDBLK
5
1D
100
AcDbEntity
100
AcDbBlockEnd
0
ENDSEC
0
SECTION
2
ENTITIES
0
CIRCLE
5
100
100
AcDbEntity
8
0
100
AcDbCircle
10
32.087440897633755
20
-27.854363334211705
30
1.5581969163302346e-14
40
1.0999999999999988
210
0
220
0
230
1
0
CIRCLE
5
101
100
AcDbEntity
8
0
100
AcDbCircle
10
92.091315754274063
20
-47.029030061960512
30
1.7117954427953551e-14
40
1.1000000000000032
210
0
220
0
230
1
0
CIRCLE
5
102
100
AcDbEntity
8
0
100
AcDbCircle
10
27.485894068990572
20
-46.329416764014397
30
1.7892341033066018e-14
40
1.0999999999999968
210
0
220
0
230
1
0
CIRCLE
5
103
100
AcDbEntity
8
0
100
AcDbCircle
10
71.058216472781979
20
-44.816595357179878
30
1.7128452651406906e-14
40
1.100000000000003
210
0
220
0
230
1
0
CIRCLE
5
104
100
AcDbEntity
8
0
100
AcDbCircle
10
112.61536184192516
20
-67.13481303427605
30
1.9292561892331409e-14
40
1.1000000000000032
210
0
220
0
230
1
0
CIRCLE
5
105
100
AcDbEntity
8
0
100
AcDbCircle
10
113.52804323639089
20
-29.096431797156161
30
1.4649633492340494e-14
40
1.1000000000000014
210
0
220
0
230
1
0
CIRCLE
5
106
100
AcDbEntity
8
0
100
AcDbCircle
10
27.485894068990572
20
-46.329416764014397
30
1.7892341033066018e-14
40
1.0999999999999968
210
0
220
0
230
1
0
CIRCLE
5
107
100
AcDbEntity
8
0
100
AcDbCircle
10
92.091315754274063
20
-47.029030061960512
30
1.7117954427953551e-14
40
1.1000000000000032
210
0
220
0
230
1
0
CIRCLE
5
108
100
AcDbEntity
8
0
100
AcDbCircle
10
32.087440897633755
20
-27.854363334211705
30
1.5581969163302346e-14
40
1.0999999999999988
210
0
220
0
230
1
0
CIRCLE
5
109
100
AcDbEntity
8
0
100
AcDbCircle
10
113.52804323639089
20
-29.096431797156161
30
1.4649633492340494e-14
40
1.1000000000000014
210
0
220
0
230
1
0
CIRCLE
5
110
100
AcDbEntity
8
0
100
AcDbCircle
10
71.058216472781979
20
-44.816595357179878
30
1.7128452651406906e-14
40
1.100000000000003
210
0
220
0
230
1
0
CIRCLE
5
111
100
AcDbEntity
8
0
100
AcDbCircle
10
112.61536184192516
20
-67.13481303427605
30
1.9292561892331409e-14
40
1.1000000000000032
210
0
220
0
230
1
0
LWPOLYLINE
5
112
100
AcDbEntity
8
0
100
AcDbPolyline
90
38
70
1
43
0.0
10
112.54371690305962
20
-87.734533533515915
10
133.12082536489953
20
-87.9626119145328
42
0.41746418857345868
10
135.14299216954956
20
-85.962730891944517
10
135.14288637887316
20
-31.264656360951033
42
-0.39919558961059465
10
137.03983736817318
20
-29.267309072243609
10
153.6817513067854
20
-28.408702227246579
42
0.41421356237309109
10
155.57604575713796
20
-26.308309755501469
10
154.71207654143154
20
-9.5624598741781242
42
0.41421356237309137
10
152.61168406968645
20
-7.6681654238255712
10
135.0535154923958
20
-8.5740446262826886
10
131.15852744993288
20
-8.6746569752566867
10
116.11786231546459
20
-8.6787873849255863
10
112.23512653876932
20
-8.5765258140233414
10
97.12326019609506
20
-7.7791643203086211
10
93.240064074379518
20
-7.4737068435690723
10
78.637207980734942
20
-5.9437918509471999
10
74.778847675499975
20
-5.4347407172356919
10
58.06364910690764
20
-2.7709512049510514
42
0.41508228239193906
10
55.772892620961727
20
-4.4371310760372094
10
54.952198899831792
20
-9.6870724962363646
42
-0.43012662192456447
10
52.561052422460151
20
-11.33461461696047
10
38.936041587957419
20
-8.443468072081437
10
35.169469198555248
20
-7.5387041793675635
10
18.737535165937256
20
-3.1254649609652474
42
0.41483702661006622
10
16.286117965786314
20
-4.5423555932683524
10
1.8059502563476448
20
-58.91844560644661
42
0.41063928292272694
10
3.20036499663094
20
-61.35931838363696
10
16.228585221795434
20
-64.99973147353019
10
20.234502536746675
20
-65.983423369159539
10
42.407678964806308
20
-70.695484666827539
42
-0.40012401508249368
10
43.966057191738244
20
-72.972513946055628
10
43.057517111531155
20
-78.564887447608868
42
0.41591439978137063
10
44.722380828764869
20
-80.86154954029665
10
60.519458758472382
20
-83.333940601541542
10
64.557267735489347
20
-83.879907295200994
10
84.759327608968263
20
-86.186762023491283
10
88.861777599045823
20
-86.53242250286182
10
108.45964588710251
20
-87.600766862328143
0
ENDSEC
0
SECTION
2
OBJECTS
0
DICTIONARY
5
C
100
AcDbDictionary
3
ACAD_GROUP
350
D
3
ACAD_MLINESTYLE
350
17
0
DICTIONARY
5
D
100
AcDbDictionary
0
DICTIONARY
5
1A
330
C
100
AcDbDictionary
0
DICTIONARY
5
17
100
AcDbDictionary
0
ENDSEC
0
EOF
