0
SECTION
2
HEADER
9
$INSUNITS
70
4
9
$ACADVER
1
AC1014
9
$HANDSEED
5
FFFF
0
ENDSEC
0
SECTION
2
TABLES
0
TABLE
2
VPORT
5
8
100
AcDbSymbolTable
0
ENDTAB
0
TABLE
2
LTYPE
5
5
100
AcDbSymbolTable
0
LTYPE
5
14
100
AcDbSymbolTableRecord
100
AcDbLinetypeTableRecord
2
BYBLOCK
70
0
0
LTYPE
5
15
100
AcDbSymbolTableRecord
100
AcDbLinetypeTableRecord
2
BYLAYER
70
0
0
ENDTAB
0
TABLE
2
LAYER
5
2
100
AcDbSymbolTable
70
2
0
LAYER
5
50
100
AcDbSymbolTableRecord
100
AcDbLayerTableRecord
2
0
70
0
6
CONTINUOUS
0
ENDTAB
0
TABLE
2
STYLE
5
3
100
AcDbSymbolTable
70
1
0
STYLE
5
11
100
AcDbSymbolTableRecord
100
AcDbTextStyleTableRecord
2
STANDARD
70
0
0
ENDTAB
0
TABLE
2
VIEW
5
6
100
AcDbSymbolTable
70
0
0
ENDTAB
0
TABLE
2
UCS
5
7
100
AcDbSymbolTable
70
0
0
ENDTAB
0
TABLE
2
APPID
5
9
100
AcDbSymbolTable
70
2
0
APPID
5
12
100
AcDbSymbolTableRecord
100
AcDbRegAppTableRecord
2
ACAD
70
0
0
ENDTAB
0
TABLE
2
DIMSTYLE
5
A
100
AcDbSymbolTable
70
1
0
ENDTAB
0
TABLE
2
BLOCK_RECORD
5
1
100
AcDbSymbolTable
70
1
0
BLOCK_RECORD
5
1F
100
AcDbSymbolTableRecord
100
AcDbBlockTableRecord
2
*MODEL_SPACE
0
BLOCK_RECORD
5
1B
100
AcDbSymbolTableRecord
100
AcDbBlockTableRecord
2
*PAPER_SPACE
0
ENDTAB
0
ENDSEC
0
SECTION
2
BLOCKS
0
BLOCK
5
20
100
AcDbEntity
100
AcDbBlockBegin
2
*MODEL_SPACE
0
ENDBLK
5
21
100
AcDbEntity
100
AcDbBlockEnd
0
BLOCK
5
1C
100
AcDbEntity
100
AcDbBlockBegin
2
*PAPER_SPACE
0
ENDBLK
5
1D
100
AcDbEntity
100
AcDbBlockEnd
0
ENDSEC
0
SECTION
2
ENTITIES
0
LWPOLYLINE
5
100
100
AcDbEntity
8
0
100
AcDbPolyline
90
4
70
1
43
0.0
10
68.044509882167176
20
-41.855995521775156
10
70.257222970476576
20
-28.029065199256568
10
56.431888421693976
20
-25.837464441519202
10
54.218436155881179
20
-39.664669082499572
0
LWPOLYLINE
5
101
100
AcDbEntity
8
0
100
AcDbPolyline
90
4
70
1
43
0.0
10
72.270531601568564
20
-66.711758049531781
10
70.804370235591293
20
-80.627375681418201
10
84.721157132560819
20
-82.115311963334833
10
86.186110883066291
20
-68.178270326106883
0
LWPOLYLINE
5
102
100
AcDbEntity
8
0
100
AcDbPolyline
90
4
70
1
43
0.0
10
48.252473960816573
20
-77.316691833008448
10
62.077457599001349
20
-79.508254240357047
10
64.290871623066735
20
-65.681399515893531
10
50.464797896780738
20
-63.490073076617925
0
LWPOLYLINE
5
103
100
AcDbEntity
8
0
100
AcDbPolyline
90
4
70
1
43
0.0
10
11.052099677402632
20
-39.386612155093331
10
24.571278967062909
20
-43.035237909889965
10
28.220293982846165
20
-29.51574606002055
10
14.700763782588036
20
-25.867081954835172
0
LWPOLYLINE
5
104
100
AcDbEntity
8
0
100
AcDbPolyline
90
4
70
1
43
0.0
10
19.625692721744432
20
-61.411121455459948
10
23.253244496357791
20
-47.893187028937867
10
9.7349601533188501
20
-44.265597012577153
10
6.1070575767489643
20
-57.783492094629459
0
CIRCLE
5
105
100
AcDbEntity
8
0
100
AcDbCircle
10
32.087440897633755
20
-27.854363334211705
30
1.5581969163302346e-14
40
1.0999999999999988
210
0
220
0
230
1
0
LWPOLYLINE
5
106
100
AcDbEntity
8
0
100
AcDbPolyline
90
4
70
1
43
0.0
10
45.412224566186282
20
-47.684552139886172
10
48.331130315622843
20
-33.990870221242211
10
34.658873287760066
20
-31.070757959056209
10
31.718543641623352
20
-44.765646499090927
0
LWPOLYLINE
5
107
100
AcDbEntity
8
0
100
AcDbPolyline
90
4
70
1
43
0.0
10
130.6181677938992
20
-45.691586615005406
10
130.61814082322721
20
-31.703031620137917
10
116.62872912348568
20
-31.681672935857179
10
116.60822714407892
20
-45.692470290551384
0
LWPOLYLINE
5
108
100
AcDbEntity
8
0
100
AcDbPolyline
90
4
70
1
43
0.0
10
78.353208180549615
20
-9.9147966761113615
10
76.887045820491323
20
-23.830414199356454
10
90.803870959208254
20
-25.31800056475625
10
92.290211467388801
20
-11.380101337214672
0
LWPOLYLINE
5
109
100
AcDbEntity
8
0
100
AcDbPolyline
90
4
70
1
43
0.0
10
27.760315817781223
20
-63.387483771334772
10
41.455205243255612
20
-66.327814520193868
10
44.374110992692152
20
-52.634132601549851
10
30.67922256129879
20
-49.693801961332156
0
LWPOLYLINE
5
110
100
AcDbEntity
8
0
100
AcDbPolyline
90
4
70
1
43
0.0
10
38.638212556734572
20
-12.447323810353996
10
35.697531999999995
20
-26.142173999999994
10
49.391525484772075
20
-29.061468901781812
10
52.310469475956012
20
-15.367437066621045
0
CIRCLE
5
111
100
AcDbEntity
8
0
100
AcDbCircle
10
92.091315754274063
20
-47.029030061960512
30
1.7117954427953551e-14
40
1.1000000000000032
210
0
220
0
230
1
0
LWPOLYLINE
5
112
100
AcDbEntity
8
0
100
AcDbPolyline
90
4
70
1
43
0.0
10
76.340528622197809
20
-28.860335882560921
10
74.852904015050683
20
-42.777510937794709
10
88.768521538295801
20
-44.243673297852936
10
90.256069553306858
20
-30.327199069733872
0
LWPOLYLINE
5
113
100
AcDbEntity
8
0
100
AcDbPolyline
90
4
70
1
43
0.0
10
29.516008507507443
20
-24.637968709367204
10
33.143598523868192
20
-11.119684366328269
10
19.625314289470587
20
-7.4920933558865066
10
15.997373362511977
20
-21.010339348536728
0
LWPOLYLINE
5
114
100
AcDbEntity
8
0
100
AcDbPolyline
90
4
70
1
43
0.0
10
149.77211521456252
20
-11.831916976659205
10
135.79966085939699
20
-12.551620900199087
10
136.51901387233897
20
-26.524036904975929
10
150.49178078771371
20
-25.80472224242261
0
LWPOLYLINE
5
115
100
AcDbEntity
8
0
100
AcDbPolyline
90
4
70
1
43
0.0
10
130.60199799311886
20
-64.725080897414728
10
130.60072516522766
20
-50.715451813722545
10
116.61255932270538
20
-50.715167218266465
10
116.59116140259621
20
-64.704928725883391
0
LWPOLYLINE
5
116
100
AcDbEntity
8
0
100
AcDbPolyline
90
4
70
1
43
0.0
10
130.56475310943279
20
-83.759820928401808
10
130.58490528096405
20
-69.748984337879222
10
116.57445784278671
20
-69.728520600219795
10
116.57502995220457
20
-83.738072097694811
0
LWPOLYLINE
5
117
100
AcDbEntity
8
0
100
AcDbPolyline
90
4
70
1
43
0.0
10
110.43200219677291
20
-31.534275853075791
10
96.447914856752078
20
-30.792032709096713
10
95.705283554508767
20
-44.776431723886994
10
109.69007172164432
20
-45.518751460002214
0
CIRCLE
5
118
100
AcDbEntity
8
0
100
AcDbCircle
10
27.485894068990572
20
-46.329416764014397
30
1.7892341033066018e-14
40
1.0999999999999968
210
0
220
0
230
1
0
CIRCLE
5
119
100
AcDbEntity
8
0
100
AcDbCircle
10
71.058216472781979
20
-44.816595357179878
30
1.7128452651406906e-14
40
1.100000000000003
210
0
220
0
230
1
0
CIRCLE
5
120
100
AcDbEntity
8
0
100
AcDbCircle
10
112.61536184192516
20
-67.13481303427605
30
1.9292561892331409e-14
40
1.1000000000000032
210
0
220
0
230
1
0
CIRCLE
5
121
100
AcDbEntity
8
0
100
AcDbCircle
10
113.52804323639089
20
-29.096431797156161
30
1.4649633492340494e-14
40
1.1000000000000014
210
0
220
0
230
1
0
LWPOLYLINE
5
122
100
AcDbEntity
8
0
100
AcDbPolyline
90
4
70
1
43
0.0
10
108.6562658410636
20
-64.54110546833229
10
109.39850898504267
20
-50.557018128311427
10
95.414109970252369
20
-49.814386826068102
10
94.67179023413712
20
-63.79917499320365
0
LWPOLYLINE
5
123
100
AcDbEntity
8
0
100
AcDbPolyline
90
4
70
1
43
0.0
10
111.44562804971062
20
-12.534202337678495
10
97.461579945518224
20
-11.7916093858239
10
96.719298559791724
20
-25.776046642361621
10
110.70373581632938
20
-26.518328028088106
0
CIRCLE
5
124
100
AcDbEntity
8
0
100
AcDbCircle
10
27.485894068990572
20
-46.329416764014397
30
1.7892341033066018e-14
40
1.0999999999999968
210
0
220
0
230
1
0
LWPOLYLINE
5
125
100
AcDbEntity
8
0
100
AcDbPolyline
90
4
70
1
43
0.0
10
107.6434583426111
20
-83.562915549280191
10
108.38538793230001
20
-69.578438839631417
10
94.400950567120958
20
-68.836158447985923
10
93.658670175475507
20
-82.820595813165014
0
CIRCLE
5
126
100
AcDbEntity
8
0
100
AcDbCircle
10
92.091315754274063
20
-47.029030061960512
30
1.7117954427953551e-14
40
1.1000000000000032
210
0
220
0
230
1
0
CIRCLE
5
127
100
AcDbEntity
8
0
100
AcDbCircle
10
32.087440897633755
20
-27.854363334211705
30
1.5581969163302346e-14
40
1.0999999999999988
210
0
220
0
230
1
0
CIRCLE
5
128
100
AcDbEntity
8
0
100
AcDbCircle
10
113.52804323639089
20
-29.096431797156161
30
1.4649633492340494e-14
40
1.1000000000000014
210
0
220
0
230
1
0
LWPOLYLINE
5
129
100
AcDbEntity
8
0
100
AcDbPolyline
90
4
70
1
43
0.0
10
86.755453821679737
20
-63.189524179071924
10
88.221071042992193
20
-49.252910153219304
10
74.305491761494537
20
-47.786397876644209
10
72.817943855124767
20
-61.702871110682253
0
LWPOLYLINE
5
130
100
AcDbEntity
8
0
100
AcDbPolyline
90
4
70
1
43
0.0
10
53.437455204227184
20
-44.66435333728942
10
51.245504529972976
20
-58.489649644324643
10
65.071501664122891
20
-60.68167691071497
10
67.263528930513246
20
-46.855679776565069
0
LWPOLYLINE
5
131
100
AcDbEntity
8
0
100
AcDbPolyline
90
4
70
1
43
0.0
10
59.405753344612222
20
-7.033168707532198
10
57.213725084140883
20
-20.85916573304079
10
71.039798810426944
20
-23.050492172316389
10
73.230736982796984
20
-9.2247311148808286
0
LWPOLYLINE
5
132
100
AcDbEntity
8
0
100
AcDbPolyline
90
4
70
1
43
0.0
10
116.64583222127617
20
-12.668863481285992
10
116.62408427600883
20
-26.658587741236541
10
130.6349209751728
20
-26.678738918686825
10
130.65507204398173
20
-12.667903213603893
0
CIRCLE
5
133
100
AcDbEntity
8
0
100
AcDbCircle
10
71.058216472781979
20
-44.816595357179878
30
1.7128452651406906e-14
40
1.100000000000003
210
0
220
0
230
1
0
CIRCLE
5
134
100
AcDbEntity
8
0
100
AcDbCircle
10
112.61536184192516
20
-67.13481303427605
30
1.9292561892331409e-14
40
1.1000000000000032
210
0
220
0
230
1
0
LWPOLYLINE
5
135
100
AcDbEntity
8
0
100
AcDbPolyline
90
38
70
1
43
0.0
10
112.54371690305962
20
-87.734533533515915
10
133.12082536489953
20
-87.9626119145328
42
0.41746418857345868
10
135.14299216954956
20
-85.962730891944517
10
135.14288637887316
20
-31.264656360951033
42
-0.39919558961059465
10
137.03983736817318
20
-29.267309072243609
10
153.6817513067854
20
-28.408702227246579
42
0.41421356237309109
10
155.57604575713796
20
-26.308309755501469
10
154.71207654143154
20
-9.5624598741781242
42
0.41421356237309137
10
152.61168406968645
20
-7.6681654238255712
10
135.0535154923958
20
-8.5740446262826886
10
131.15852744993288
20
-8.6746569752566867
10
116.11786231546459
20
-8.6787873849255863
10
112.23512653876932
20
-8.5765258140233414
10
97.12326019609506
20
-7.7791643203086211
10
93.240064074379518
20
-7.4737068435690723
10
78.637207980734942
20
-5.9437918509471999
10
74.778847675499975
20
-5.4347407172356919
10
58.06364910690764
20
-2.7709512049510514
42
0.41508228239193906
10
55.772892620961727
20
-4.4371310760372094
10
54.952198899831792
20
-9.6870724962363646
42
-0.43012662192456447
10
52.561052422460151
20
-11.33461461696047
10
38.936041587957419
20
-8.443468072081437
10
35.169469198555248
20
-7.5387041793675635
10
18.737535165937256
20
-3.1254649609652474
42
0.41483702661006622
10
16.286117965786314
20
-4.5423555932683524
10
1.8059502563476448
20
-58.91844560644661
42
0.41063928292272694
10
3.20036499663094
20
-61.35931838363696
10
16.228585221795434
20
-64.99973147353019
10
20.234502536746675
20
-65.983423369159539
10
42.407678964806308
20
-70.695484666827539
42
-0.40012401508249368
10
43.966057191738244
20
-72.972513946055628
10
43.057517111531155
20
-78.564887447608868
42
0.41591439978137063
10
44.722380828764869
20
-80.86154954029665
10
60.519458758472382
20
-83.333940601541542
10
64.557267735489347
20
-83.879907295200994
10
84.759327608968263
20
-86.186762023491283
10
88.861777599045823
20
-86.53242250286182
10
108.45964588710251
20
-87.600766862328143
0
ENDSEC
0
SECTION
2
OBJECTS
0
DICTIONARY
5
C
100
AcDbDictionary
3
ACAD_GROUP
350
D
3
ACAD_MLINESTYLE
350
17
0
DICTIONARY
5
D
100
AcDbDictionary
0
DICTIONARY
5
1A
330
C
100
AcDbDictionary
0
DICTIONARY
5
17
100
AcDbDictionary
0
ENDSEC
0
EOF
