0
SECTION
2
HEADER
9
$INSUNITS
70
4
9
$ACADVER
1
AC1014
9
$HANDSEED
5
FFFF
0
ENDSEC
0
SECTION
2
TABLES
0
TABLE
2
VPORT
5
8
100
AcDbSymbolTable
0
ENDTAB
0
TABLE
2
LTYPE
5
5
100
AcDbSymbolTable
0
LTYPE
5
14
100
AcDbSymbolTableRecord
100
AcDbLinetypeTableRecord
2
BYBLOCK
70
0
0
LTYPE
5
15
100
AcDbSymbolTableRecord
100
AcDbLinetypeTableRecord
2
BYLAYER
70
0
0
ENDTAB
0
TABLE
2
LAYER
5
2
100
AcDbSymbolTable
70
2
0
LAYER
5
50
100
AcDbSymbolTableRecord
100
AcDbLayerTableRecord
2
0
70
0
6
CONTINUOUS
0
ENDTAB
0
TABLE
2
STYLE
5
3
100
AcDbSymbolTable
70
1
0
STYLE
5
11
100
AcDbSymbolTableRecord
100
AcDbTextStyleTableRecord
2
STANDARD
70
0
0
ENDTAB
0
TABLE
2
VIEW
5
6
100
AcDbSymbolTable
70
0
0
ENDTAB
0
TABLE
2
UCS
5
7
100
AcDbSymbolTable
70
0
0
ENDTAB
0
TABLE
2
APPID
5
9
100
AcDbSymbolTable
70
2
0
APPID
5
12
100
AcDbSymbolTableRecord
100
AcDbRegAppTableRecord
2
ACAD
70
0
0
ENDTAB
0
TABLE
2
DIMSTYLE
5
A
100
AcDbSymbolTable
70
1
0
ENDTAB
0
TABLE
2
BLOCK_RECORD
5
1
100
AcDbSymbolTable
70
1
0
BLOCK_RECORD
5
1F
100
AcDbSymbolTableRecord
100
AcDbBlockTableRecord
2
*MODEL_SPACE
0
BLOCK_RECORD
5
1B
100
AcDbSymbolTableRecord
100
AcDbBlockTableRecord
2
*PAPER_SPACE
0
ENDTAB
0
ENDSEC
0
SECTION
2
BLOCKS
0
BLOCK
5
20
100
AcDbEntity
100
AcDbBlockBegin
2
*MODEL_SPACE
0
ENDBLK
5
21
100
AcDbEntity
100
AcDbBlockEnd
0
BLOCK
5
1C
100
AcDbEntity
100
AcDbBlockBegin
2
*PAPER_SPACE
0
ENDBLK
5
1D
100
AcDbEntity
100
AcDbBlockEnd
0
ENDSEC
0
SECTION
2
ENTITIES
0
LWPOLYLINE
5
100
100
AcDbEntity
8
0
100
AcDbPolyline
90
4
70
1
43
0.0
10
70.257222970476576
20
-115.02906519925658
10
68.044509882167176
20
-128.85599552177518
10
54.218436155881179
20
-126.66466908249959
10
56.431888421693976
20
-112.83746444151922
0
LWPOLYLINE
5
101
100
AcDbEntity
8
0
100
AcDbPolyline
90
4
70
1
43
0.0
10
70.804370235591293
20
-167.62737568141824
10
72.270531601568564
20
-153.7117580495318
10
86.186110883066291
20
-155.17827032610688
10
84.721157132560819
20
-169.11531196333485
0
LWPOLYLINE
5
102
100
AcDbEntity
8
0
100
AcDbPolyline
90
4
70
1
43
0.0
10
62.077457599001349
20
-166.50825424035705
10
48.252473960816573
20
-164.31669183300846
10
50.464797896780738
20
-150.49007307661793
10
64.290871623066735
20
-152.68139951589353
0
LWPOLYLINE
5
103
100
AcDbEntity
8
0
100
AcDbPolyline
90
4
70
1
43
0.0
10
88.221071042992193
20
-136.25291015321932
10
86.755453821679737
20
-150.18952417907195
10
72.817943855124767
20
-148.70287111068225
10
74.305491761494537
20
-134.78639787664423
0
CIRCLE
5
104
100
AcDbEntity
8
0
100
AcDbCircle
10
112.61536184192516
20
-154.13481303427605
30
1.9292561892331409e-14
40
1.1000000000000032
210
0
220
0
230
1
0
CIRCLE
5
105
100
AcDbEntity
8
0
100
AcDbCircle
10
27.485894068990572
20
-133.32941676401441
30
1.7892341033066018e-14
40
1.0999999999999968
210
0
220
0
230
1
0
CIRCLE
5
106
100
AcDbEntity
8
0
100
AcDbCircle
10
32.087440897633755
20
-114.85436333421171
30
1.5581969163302346e-14
40
1.0999999999999988
210
0
220
0
230
1
0
LWPOLYLINE
5
107
100
AcDbEntity
8
0
100
AcDbPolyline
90
4
70
1
43
0.0
10
94.400950567120958
20
-155.83615844798595
10
108.38538793230001
20
-156.57843883963142
10
107.6434583426111
20
-170.56291554928021
10
93.658670175475507
20
-169.82059581316503
0
LWPOLYLINE
5
108
100
AcDbEntity
8
0
100
AcDbPolyline
90
38
70
1
43
0.0
10
3.2003649966309409
20
-148.359318383637
42
-0.41063928292272389
10
1.8059502563476437
20
-145.91844560644662
10
16.286117965786321
20
-91.542355593268368
42
-0.41483702661006883
10
18.737535165937253
20
-90.12546496096526
10
35.169469198555248
20
-94.538704179367571
10
38.936041587957419
20
-95.443468072081444
10
52.561052422460151
20
-98.334614616960479
42
0.43012662192456497
10
54.952198899831792
20
-96.687072496236368
10
55.772892620961727
20
-91.437131076037218
42
-0.41508228239194345
10
58.063649106907647
20
-89.770951204951061
10
74.778847675499975
20
-92.434740717235698
10
78.637207980734942
20
-92.943791850947207
10
93.240064074379518
20
-94.47370684356909
10
97.12326019609506
20
-94.779164320308638
10
112.23512653876932
20
-95.576525814023356
10
116.11786231546461
20
-95.678787384925599
10
131.15852744993288
20
-95.674656975256696
10
135.0535154923958
20
-95.574044626282699
10
152.61168406968642
20
-94.668165423825585
42
-0.41421356237309243
10
154.71207654143151
20
-96.562459874178131
10
155.57604575713796
20
-113.30830975550148
42
-0.41421356237308982
10
153.6817513067854
20
-115.40870222724658
10
137.03983736817318
20
-116.26730907224359
42
0.39919558961059148
10
135.14288637887316
20
-118.26465636095105
10
135.14299216954956
20
-172.96273089194455
42
-0.41746418857345868
10
133.12082536489953
20
-174.96261191453283
10
112.54371690305962
20
-174.73453353351596
10
108.45964588710252
20
-174.60076686232816
10
88.861777599045823
20
-173.53242250286183
10
84.759327608968263
20
-173.18676202349133
10
64.557267735489347
20
-170.87990729520101
10
60.519458758472382
20
-170.33394060154154
10
44.722380828764862
20
-167.86154954029666
42
-0.41591439978137257
10
43.057517111531155
20
-165.56488744760887
10
43.966057191738265
20
-159.97251394605564
42
0.40012401508249251
10
42.407678964806323
20
-157.69548466682755
10
20.234502536746675
20
-152.98342336915954
10
16.228585221795434
20
-151.9997314735302
0
LWPOLYLINE
5
109
100
AcDbEntity
8
0
100
AcDbPolyline
90
4
70
1
43
0.0
10
15.997373362511977
20
-108.01033934853675
10
19.625314289470587
20
-94.49209335588651
10
33.143598523868192
20
-98.119684366328272
10
29.516008507507443
20
-111.63796870936721
0
CIRCLE
5
110
100
AcDbEntity
8
0
100
AcDbCircle
10
32.087440897633755
20
-114.85436333421171
30
1.5581969163302346e-14
40
1.0999999999999988
210
0
220
0
230
1
0
LWPOLYLINE
5
111
100
AcDbEntity
8
0
100
AcDbPolyline
90
4
70
1
43
0.0
10
90.803870959208254
20
-112.31800056475626
10
76.887045820491323
20
-110.83041419935647
10
78.353208180549615
20
-96.914796676111365
10
92.290211467388801
20
-98.380101337214683
0
LWPOLYLINE
5
112
100
AcDbEntity
8
0
100
AcDbPolyline
90
4
70
1
43
0.0
10
31.718543641623352
20
-131.76564649909093
10
34.658873287760066
20
-118.07075795905621
10
48.331130315622843
20
-120.99087022124223
10
45.412224566186282
20
-134.68455213988619
0
LWPOLYLINE
5
113
100
AcDbEntity
8
0
100
AcDbPolyline
90
4
70
1
43
0.0
10
116.60822714407892
20
-132.6924702905514
10
116.62872912348568
20
-118.68167293585719
10
130.61814082322721
20
-118.70303162013795
10
130.6181677938992
20
-132.69158661500541
0
LWPOLYLINE
5
114
100
AcDbEntity
8
0
100
AcDbPolyline
90
4
70
1
43
0.0
10
94.67179023413712
20
-150.79917499320368
10
95.414109970252369
20
-136.81438682606813
10
109.39850898504268
20
-137.55701812831146
10
108.6562658410636
20
-151.54110546833232
0
LWPOLYLINE
5
115
100
AcDbEntity
8
0
100
AcDbPolyline
90
4
70
1
43
0.0
10
67.263528930513246
20
-133.85567977656507
10
65.071501664122891
20
-147.681676910715
10
51.245504529972976
20
-145.48964964432463
10
53.437455204227184
20
-131.66435333728944
0
LWPOLYLINE
5
116
100
AcDbEntity
8
0
100
AcDbPolyline
90
4
70
1
43
0.0
10
57.213725084140883
20
-107.8591657330408
10
59.405753344612222
20
-94.033168707532212
10
73.230736982796984
20
-96.224731114880839
10
71.039798810426944
20
-110.05049217231641
0
LWPOLYLINE
5
117
100
AcDbEntity
8
0
100
AcDbPolyline
90
4
70
1
43
0.0
10
27.760315817781223
20
-150.38748377133479
10
30.679222561298793
20
-136.69380196133216
10
44.374110992692152
20
-139.63413260154988
10
41.455205243255612
20
-153.32781452019387
0
LWPOLYLINE
5
118
100
AcDbEntity
8
0
100
AcDbPolyline
90
4
70
1
43
0.0
10
23.253244496357791
20
-134.89318702893786
10
19.625692721744432
20
-148.41112145545995
10
6.1070575767489643
20
-144.78349209462948
10
9.7349601533188501
20
-131.26559701257716
0
LWPOLYLINE
5
119
100
AcDbEntity
8
0
100
AcDbPolyline
90
4
70
1
43
0.0
10
14.700763782588036
20
-112.86708195483519
10
28.220293982846165
20
-116.51574606002056
10
24.571278967062913
20
-130.03523790988996
10
11.052099677402632
20
-126.38661215509333
0
LWPOLYLINE
5
120
100
AcDbEntity
8
0
100
AcDbPolyline
90
4
70
1
43
0.0
10
116.64583222127617
20
-99.668863481285996
10
130.65507204398173
20
-99.667903213603907
10
130.6349209751728
20
-113.67873891868683
10
116.62408427600883
20
-113.65858774123654
0
LWPOLYLINE
5
121
100
AcDbEntity
8
0
100
AcDbPolyline
90
4
70
1
43
0.0
10
35.697531999999995
20
-113.14217400000001
10
38.638212556734572
20
-99.447323810354007
10
52.310469475956012
20
-102.36743706662105
10
49.391525484772089
20
-116.06146890178182
0
LWPOLYLINE
5
122
100
AcDbEntity
8
0
100
AcDbPolyline
90
4
70
1
43
0.0
10
97.461579945518224
20
-98.791609385823904
10
111.44562804971062
20
-99.534202337678508
10
110.70373581632938
20
-113.51832802808812
10
96.719298559791724
20
-112.77604664236164
0
CIRCLE
5
123
100
AcDbEntity
8
0
100
AcDbCircle
10
92.091315754274063
20
-134.02903006196053
30
1.7117954427953551e-14
40
1.1000000000000032
210
0
220
0
230
1
0
LWPOLYLINE
5
124
100
AcDbEntity
8
0
100
AcDbPolyline
90
4
70
1
43
0.0
10
74.852904015050683
20
-129.77751093779472
10
76.340528622197809
20
-115.86033588256093
10
90.256069553306858
20
-117.32719906973388
10
88.768521538295801
20
-131.24367329785292
0
LWPOLYLINE
5
125
100
AcDbEntity
8
0
100
AcDbPolyline
90
4
70
1
43
0.0
10
150.49178078771371
20
-112.80472224242261
10
136.51901387233897
20
-113.52403690497594
10
135.79966085939699
20
-99.551620900199097
10
149.77211521456252
20
-98.831916976659215
0
CIRCLE
5
126
100
AcDbEntity
8
0
100
AcDbCircle
10
71.058216472781979
20
-131.81659535717989
30
1.7128452651406906e-14
40
1.100000000000003
210
0
220
0
230
1
0
CIRCLE
5
127
100
AcDbEntity
8
0
100
AcDbCircle
10
92.091315754274063
20
-134.02903006196053
30
1.7117954427953551e-14
40
1.1000000000000032
210
0
220
0
230
1
0
CIRCLE
5
128
100
AcDbEntity
8
0
100
AcDbCircle
10
71.058216472781979
20
-131.81659535717989
30
1.7128452651406906e-14
40
1.100000000000003
210
0
220
0
230
1
0
LWPOLYLINE
5
129
100
AcDbEntity
8
0
100
AcDbPolyline
90
4
70
1
43
0.0
10
130.60072516522766
20
-137.71545181372255
10
130.60199799311886
20
-151.72508089741473
10
116.59116140259621
20
-151.70492872588341
10
116.61255932270538
20
-137.71516721826649
0
LWPOLYLINE
5
130
100
AcDbEntity
8
0
100
AcDbPolyline
90
4
70
1
43
0.0
10
130.58490528096405
20
-156.74898433787922
10
130.56475310943279
20
-170.75982092840181
10
116.57502995220457
20
-170.73807209769484
10
116.57445784278671
20
-156.72852060021981
0
LWPOLYLINE
5
131
100
AcDbEntity
8
0
100
AcDbPolyline
90
4
70
1
43
0.0
10
95.705283554508767
20
-131.77643172388701
10
96.447914856752107
20
-117.79203270909673
10
110.43200219677291
20
-118.5342758530758
10
109.69007172164432
20
-132.51875146000225
0
CIRCLE
5
132
100
AcDbEntity
8
0
100
AcDbCircle
10
27.485894068990572
20
-133.32941676401441
30
1.7892341033066018e-14
40
1.0999999999999968
210
0
220
0
230
1
0
CIRCLE
5
133
100
AcDbEntity
8
0
100
AcDbCircle
10
112.61536184192516
20
-154.13481303427605
30
1.9292561892331409e-14
40
1.1000000000000032
210
0
220
0
230
1
0
CIRCLE
5
134
100
AcDbEntity
8
0
100
AcDbCircle
10
113.52804323639089
20
-116.09643179715617
30
1.4649633492340494e-14
40
1.1000000000000014
210
0
220
0
230
1
0
CIRCLE
5
135
100
AcDbEntity
8
0
100
AcDbCircle
10
113.52804323639089
20
-116.09643179715617
30
1.4649633492340494e-14
40
1.1000000000000014
210
0
220
0
230
1
0
LWPOLYLINE
5
136
100
AcDbEntity
8
0
100
AcDbPolyline
90
4
70
1
43
0.0
10
70.804370235591293
20
-10.457335505118515
10
72.270531601568564
20
-24.372953137004927
10
86.186110883066291
20
-22.906440860429829
10
84.721157132560819
20
-8.9693992232018793
0
LWPOLYLINE
5
137
100
AcDbEntity
8
0
100
AcDbPolyline
90
38
70
1
43
0.0
10
84.759327608968263
20
-4.8979491630454319
10
64.557267735489347
20
-7.2048038913357182
10
60.519458758472382
20
-7.7507705849951769
10
44.722380828764855
20
-10.223161646240047
42
0.4159143997813719
10
43.057517111531155
20
-12.519823738927842
10
43.966057191738258
20
-18.11219724048108
42
-0.40012401508249346
10
42.407678964806323
20
-20.389226519709176
10
20.234502536746675
20
-25.10128781737717
10
16.228585221795434
20
-26.084979713006522
10
3.2003649966309382
20
-29.725392802899748
42
0.41063928292272484
10
1.8059502563476437
20
-32.166265580090105
10
16.286117965786321
20
-86.542355593268354
42
0.41483702661006883
10
18.737535165937253
20
-87.959246225571462
10
35.169469198555248
20
-83.546007007169152
10
38.936041587957419
20
-82.641243114455278
10
52.561052422460151
20
-79.750096569576229
42
-0.43012662192456497
10
54.952198899831792
20
-81.397638690300354
10
55.772892620961727
20
-86.647580110499518
42
0.41508228239194345
10
58.063649106907647
20
-88.313759981585662
10
74.778847675499975
20
-85.649970469301024
10
78.637207980734942
20
-85.140919335589516
10
93.240064074379518
20
-83.611004342967647
10
97.12326019609506
20
-83.305546866228099
10
112.23512653876932
20
-82.508185372513367
10
116.11786231546461
20
-82.405923801611124
10
131.15852744993288
20
-82.410054211280027
10
135.0535154923958
20
-82.510666560254023
10
152.61168406968642
20
-83.416545762711138
42
0.41421356237309243
10
154.71207654143151
20
-81.522251312358591
10
155.57604575713796
20
-64.776401431035254
42
0.41421356237308982
10
153.6817513067854
20
-62.676008959290144
10
137.03983736817318
20
-61.817402114293117
42
-0.39919558961059143
10
135.14288637887316
20
-59.820054825585686
10
135.14299216954956
20
-5.1219802945921877
42
0.41746418857346124
10
133.12082536489953
20
-3.1220992720039042
10
112.54371690305962
20
-3.3501776530208005
10
108.45964588710252
20
-3.4839443242085721
10
88.861777599045823
20
-4.5522886836748988
0
CIRCLE
5
138
100
AcDbEntity
8
0
100
AcDbCircle
10
-92.091315754274063
20
-44.055681124576211
30
2.771633630475037e-14
40
1.1000000000000032
210
0
220
-1.2246467991473532e-16
230
-1
0
LWPOLYLINE
5
139
100
AcDbEntity
8
0
100
AcDbPolyline
90
4
70
1
43
0.0
10
130.6349209751728
20
-64.40597226784989
10
116.62408427600883
20
-64.426123445300178
10
116.64583222127617
20
-78.415847705250727
10
130.65507204398173
20
-78.416807972932816
0
LWPOLYLINE
5
140
100
AcDbEntity
8
0
100
AcDbPolyline
90
4
70
1
43
0.0
10
130.60199799311886
20
-26.359630289121981
10
116.59116140259621
20
-26.37978246065332
10
116.61255932270538
20
-40.369543968270243
10
130.60072516522766
20
-40.36925937281417
0
LWPOLYLINE
5
141
100
AcDbEntity
8
0
100
AcDbPolyline
90
4
70
1
43
0.0
10
48.252473960816573
20
-13.768019353528267
10
50.464797896780738
20
-27.594638109918783
10
64.290871623066735
20
-25.403311670643181
10
62.077457599001349
20
-11.576456946179672
0
LWPOLYLINE
5
142
100
AcDbEntity
8
0
100
AcDbPolyline
90
4
70
1
43
0.0
10
31.718543641623352
20
-46.319064687445788
10
34.658873287760066
20
-60.013953227480513
10
48.331130315622843
20
-57.093840965294504
10
45.412224566186282
20
-43.400159046650543
0
CIRCLE
5
143
100
AcDbEntity
8
0
100
AcDbCircle
10
-71.058216472781979
20
-46.268115829356837
30
2.7726834528203722e-14
40
1.100000000000003
210
0
220
-1.2246467991473532e-16
230
-1
0
LWPOLYLINE
5
144
100
AcDbEntity
8
0
100
AcDbPolyline
90
4
70
1
43
0.0
10
94.67179023413712
20
-27.285536193333062
10
95.414109970252369
20
-41.270324360468607
10
109.39850898504268
20
-40.527693058225282
10
108.6562658410636
20
-26.543605718204422
0
LWPOLYLINE
5
145
100
AcDbEntity
8
0
100
AcDbPolyline
90
4
70
1
43
0.0
10
130.56475310943279
20
-7.3248902581349107
10
116.57502995220457
20
-7.3466390888419042
10
116.57445784278671
20
-21.356190586316917
10
130.58490528096405
20
-21.33572684865749
0
LWPOLYLINE
5
146
100
AcDbEntity
8
0
100
AcDbPolyline
90
4
70
1
43
0.0
10
65.071501664122891
20
-30.403034275821739
10
51.245504529972976
20
-32.595061542212072
10
53.437455204227184
20
-46.420357849247296
10
67.263528930513246
20
-44.229031409971647
0
LWPOLYLINE
5
147
100
AcDbEntity
8
0
100
AcDbPolyline
90
4
70
1
43
0.0
10
27.760315817781223
20
-27.697227415201944
10
30.679222561298793
20
-41.39090922520456
10
44.374110992692152
20
-38.450578584986857
10
41.455205243255612
20
-24.756896666342847
0
LWPOLYLINE
5
148
100
AcDbEntity
8
0
100
AcDbPolyline
90
4
70
1
43
0.0
10
38.638212556734572
20
-78.637387376182716
10
52.310469475956012
20
-75.717274119915672
10
49.391525484772089
20
-62.0232422847549
10
35.697531999999995
20
-64.942537186536725
0
LWPOLYLINE
5
149
100
AcDbEntity
8
0
100
AcDbPolyline
90
4
70
1
43
0.0
10
93.658670175475507
20
-8.2641153733717054
10
94.400950567120958
20
-22.248552738550789
10
108.38538793230001
20
-21.506272346905291
10
107.6434583426111
20
-7.5217956372565276
0
LWPOLYLINE
5
150
100
AcDbEntity
8
0
100
AcDbPolyline
90
4
70
1
43
0.0
10
72.817943855124767
20
-29.381840075854466
10
74.305491761494537
20
-43.298313309892507
10
88.221071042992193
20
-41.831801033317419
10
86.755453821679737
20
-27.895187007464788
0
LWPOLYLINE
5
151
100
AcDbEntity
8
0
100
AcDbPolyline
90
4
70
1
43
0.0
10
130.6181677938992
20
-45.39312457153131
10
116.60822714407892
20
-45.392240895985331
10
116.62872912348568
20
-59.403038250679536
10
130.61814082322721
20
-59.381679566398795
0
CIRCLE
5
152
100
AcDbEntity
8
0
100
AcDbCircle
10
-27.485894068990572
20
-44.755294422522319
30
2.8490722909862831e-14
40
1.0999999999999968
210
0
220
-1.2246467991473532e-16
230
-1
0
CIRCLE
5
153
100
AcDbEntity
8
0
100
AcDbCircle
10
-112.61536184192516
20
-23.949898152260658
30
2.9890943769128225e-14
40
1.1000000000000032
210
0
220
-1.2246467991473532e-16
230
-1
0
LWPOLYLINE
5
154
100
AcDbEntity
8
0
100
AcDbPolyline
90
4
70
1
43
0.0
10
57.213725084140883
20
-70.225545453495926
10
59.405753344612222
20
-84.051542479004524
10
73.230736982796984
20
-81.859980071655883
10
71.039798810426944
20
-68.034219014220326
0
CIRCLE
5
155
100
AcDbEntity
8
0
100
AcDbCircle
10
-112.61536184192516
20
-23.949898152260658
30
2.9890943769128225e-14
40
1.1000000000000032
210
0
220
-1.2246467991473532e-16
230
-1
0
CIRCLE
5
156
100
AcDbEntity
8
0
100
AcDbCircle
10
-71.058216472781979
20
-46.268115829356837
30
2.7726834528203722e-14
40
1.100000000000003
210
0
220
-1.2246467991473532e-16
230
-1
0
LWPOLYLINE
5
157
100
AcDbEntity
8
0
100
AcDbPolyline
90
4
70
1
43
0.0
10
24.571278967062913
20
-48.049473276646751
10
11.052099677402632
20
-51.698099031443391
10
14.700763782588036
20
-65.217629231701551
10
28.220293982846165
20
-61.568965126516169
0
LWPOLYLINE
5
158
100
AcDbEntity
8
0
100
AcDbPolyline
90
4
70
1
43
0.0
10
90.256069553306858
20
-60.757512116802843
10
88.768521538295801
20
-46.841037888683779
10
74.852904015050683
20
-48.307200248742006
10
76.340528622197809
20
-62.224375303975791
0
LWPOLYLINE
5
159
100
AcDbEntity
8
0
100
AcDbPolyline
90
4
70
1
43
0.0
10
111.44562804971062
20
-78.550508848858215
10
110.70373581632938
20
-64.566383158448616
10
96.719298559791724
20
-65.308664544175087
10
97.461579945518224
20
-79.293101800712819
0
LWPOLYLINE
5
160
100
AcDbEntity
8
0
100
AcDbPolyline
90
4
70
1
43
0.0
10
110.43200219677291
20
-59.550435333460925
10
109.69007172164432
20
-45.565959726534501
10
95.705283554508767
20
-46.308279462649722
10
96.447914856752107
20
-60.292678477440006
0
LWPOLYLINE
5
161
100
AcDbEntity
8
0
100
AcDbPolyline
90
4
70
1
43
0.0
10
150.49178078771371
20
-65.279988944114109
10
136.51901387233897
20
-64.560674281560779
10
135.79966085939699
20
-78.533090286337625
10
149.77211521456252
20
-79.252794209877507
0
LWPOLYLINE
5
162
100
AcDbEntity
8
0
100
AcDbPolyline
90
4
70
1
43
0.0
10
92.290211467388801
20
-79.70460984932204
10
90.803870959208254
20
-65.766710621780476
10
76.887045820491323
20
-67.254296987180254
10
78.353208180549615
20
-81.169914510425357
0
CIRCLE
5
163
100
AcDbEntity
8
0
100
AcDbCircle
10
-113.52804323639089
20
-61.988279389380558
30
2.524801536913731e-14
40
1.1000000000000014
210
0
220
-1.2246467991473532e-16
230
-1
0
CIRCLE
5
164
100
AcDbEntity
8
0
100
AcDbCircle
10
-113.52804323639089
20
-61.988279389380558
30
2.524801536913731e-14
40
1.1000000000000014
210
0
220
-1.2246467991473532e-16
230
-1
0
LWPOLYLINE
5
165
100
AcDbEntity
8
0
100
AcDbPolyline
90
4
70
1
43
0.0
10
15.997373362511977
20
-70.07437183799999
10
19.625314289470587
20
-83.592617830650212
10
33.143598523868192
20
-79.96502682020845
10
29.516008507507443
20
-66.446742477169508
0
LWPOLYLINE
5
166
100
AcDbEntity
8
0
100
AcDbPolyline
90
4
70
1
43
0.0
10
23.253244496357791
20
-43.191524157598863
10
19.625692721744432
20
-29.67358973107677
10
6.1070575767489643
20
-33.301219091907257
10
9.7349601533188501
20
-46.819114173959562
0
LWPOLYLINE
5
167
100
AcDbEntity
8
0
100
AcDbPolyline
90
4
70
1
43
0.0
10
54.218436155881179
20
-51.420042104037137
10
56.431888421693976
20
-65.24724674501752
10
70.257222970476576
20
-63.055645987280151
10
68.044509882167176
20
-49.228715664761552
0
CIRCLE
5
168
100
AcDbEntity
8
0
100
AcDbCircle
10
-32.087440897633755
20
-63.230347852325011
30
2.6180351040099158e-14
40
1.0999999999999988
210
0
220
-1.2246467991473532e-16
230
-1
0
CIRCLE
5
169
100
AcDbEntity
8
0
100
AcDbCircle
10
-27.485894068990572
20
-44.755294422522319
30
2.8490722909862831e-14
40
1.0999999999999968
210
0
220
-1.2246467991473532e-16
230
-1
0
CIRCLE
5
170
100
AcDbEntity
8
0
100
AcDbCircle
10
-32.087440897633755
20
-63.230347852325011
30
2.6180351040099158e-14
40
1.0999999999999988
210
0
220
-1.2246467991473532e-16
230
-1
0
CIRCLE
5
171
100
AcDbEntity
8
0
100
AcDbCircle
10
-92.091315754274063
20
-44.055681124576211
30
2.771633630475037e-14
40
1.1000000000000032
210
0
220
-1.2246467991473532e-16
230
-1
0
ENDSEC
0
SECTION
2
OBJECTS
0
DICTIONARY
5
C
100
AcDbDictionary
3
ACAD_GROUP
350
D
3
ACAD_MLINESTYLE
350
17
0
DICTIONARY
5
D
100
AcDbDictionary
0
DICTIONARY
5
1A
330
C
100
AcDbDictionary
0
DICTIONARY
5
17
100
AcDbDictionary
0
ENDSEC
0
EOF
